<svg xmlns="http://www.w3.org/2000/svg" viewBox="0 0 70.48 33.45"><defs><style>.cls-1{fill:#fff;}</style></defs><g id="Livello_2" data-name="Livello 2"><g id="Livello_1-2" data-name="Livello 1"><path class="cls-1" d="M13.92,15.52a11.86,11.86,0,0,0-7.29.89,12.15,12.15,0,0,0-4.94,3.8c-.15.19-.31.5-.56.44s-.23-.37-.31-.59A13.86,13.86,0,0,1,0,15.79,13.67,13.67,0,0,1,.11,14c0-.24.21-.33.4-.42a14.19,14.19,0,0,1,2.72-.81A13.38,13.38,0,0,1,8,12.62,11.38,11.38,0,0,1,13,14.5c.3.21.67.29.9.6a.14.14,0,0,0,.21,0c.09-.07,0-.17,0-.26a8.76,8.76,0,0,0-1.73-3A11.48,11.48,0,0,0,9.53,9.37,15.75,15.75,0,0,0,6,7.69a23.64,23.64,0,0,0-2.62-.6c-.11,0-.24,0-.27-.14s.06-.23.15-.32A18.69,18.69,0,0,1,6.2,4,12.46,12.46,0,0,1,8.36,2.87a1,1,0,0,1,1.1.19,13,13,0,0,1,2.28,2.11,12.88,12.88,0,0,1,2.87,6.49,18.45,18.45,0,0,1,0,3.24,2.13,2.13,0,0,1-.6,1.18,11.07,11.07,0,0,0-2.69,6.34,12.62,12.62,0,0,0,.41,4.46c.17.65.43,1.28.66,1.92,0,.15.14.3,0,.45s-.28.07-.44.05a14.16,14.16,0,0,1-4.38-1.47c-.47-.23-.9-.53-1.36-.77a.82.82,0,0,1-.45-.82,10.5,10.5,0,0,1,1.16-4.1,11.91,11.91,0,0,1,3.53-4.61,10.36,10.36,0,0,1,2.73-1.6A2.28,2.28,0,0,0,13.92,15.52Z"/><path class="cls-1" d="M19.48,19.47c-.71.21-1.33.4-1.95.56a10.69,10.69,0,0,1-1.67.32.69.69,0,0,0-.63.46c-.4.8-.83,1.6-1.29,2.37-.13.22-.29.55-.71.41a.92.92,0,0,1,0-.19c.68-1.4,1.34-2.79,2-4.18.8-1.63,1.59-3.28,2.44-4.88,1.61-3,3.3-5.95,4.88-9,.59-1.12,1-2.37,1.45-3.55a12.19,12.19,0,0,1,.66-1.3c.18-.31.39-.63.82-.48s.44.56.26,1C25.38,2,25,3,24.53,4s-1,2-1.37,3a30.65,30.65,0,0,0-1,3.27c-.32,1.24-.61,2.49-.86,3.74-.21,1-.35,2.09-.48,3.14-.07.61,0,.63.61.58a5.63,5.63,0,0,1,1.23,0,2,2,0,0,1,1.24.8l-1.73.18c-1.75.2-1.41.22-1.49,1.52a22.4,22.4,0,0,0,.32,6,11.13,11.13,0,0,0,3.17,6,3.73,3.73,0,0,0,2.36.79,1.59,1.59,0,0,1,.54.1c-.09.06-.17.16-.27.19a3.89,3.89,0,0,1-4.09-1.07,10.91,10.91,0,0,1-2.43-4.5A23.89,23.89,0,0,1,19.48,20Zm-3.24-.35.13.17c1-.42,2.08-.84,3.11-1.29.12-.05.21-.31.22-.48a30.1,30.1,0,0,1,.92-5.66c.07-.28.09-.57.14-.86L20.61,11Z"/><path class="cls-1" d="M41.27,12.94c-.78.24-1.5.42-2.18.68-.49.18-.42.72-.48,1.11-.4,2.69-.76,5.39-1.12,8.09-.09.67-.1,1.36-.15,2.06.53.11.28.52.29.83a.64.64,0,0,1-.49.67.56.56,0,0,1-.35-.08A1.32,1.32,0,0,1,36.16,25c.11-1.49.21-3,.39-4.48s.47-3.22.71-4.83c.06-.41.14-.81.22-1.22s0-.39-.33-.34l-2.2.33c-.33.05-.66.07-1,.1s-.66-.14-.87-.64c.51-.17,1-.38,1.49-.5.94-.23,1.89-.4,2.83-.63a.5.5,0,0,0,.31-.38c0-.87,0-1.74,0-2.61a1.91,1.91,0,0,1,.12-.83.83.83,0,0,1,.56-.38c.31,0,.49.2.51.5,0,.62.08,1.24.1,1.85a5.43,5.43,0,0,1,0,.57c0,.84.07.86.94.69a29.66,29.66,0,0,1,3.14-.45,3.17,3.17,0,0,1,3.07,1.51,4.31,4.31,0,0,1,.23.44,10.75,10.75,0,0,0-2.1-.83,9.8,9.8,0,0,0-2.11.06C42,14,41.88,15,41.73,15.94s-.35,2.22-.47,3.33a15.33,15.33,0,0,0-.07,2.63c.09-.26.17-.52.28-.78.27-.67.52-1.35.85-2a1.44,1.44,0,0,1,1.58-.64c.56.07.78.57,1,1a8.82,8.82,0,0,1,.36,3.75c0,.17-.3.4-.5.46s-.41-.22-.43-.37c-.16-.87-.26-1.74-.39-2.62,0-.35-.11-.69-.19-1.16a3.37,3.37,0,0,0-1.13,1.81c-.21.71-.36,1.43-.54,2.16a1,1,0,0,1-.9.9.82.82,0,0,1-.94-.68,8.84,8.84,0,0,1-.34-2.15,29,29,0,0,1,.29-3.21c.13-1,.28-2.07.49-3.09C40.78,14.57,41,13.85,41.27,12.94Z"/><path class="cls-1" d="M55.18,22.76c-.55.26-1,.5-1.47.71a10.57,10.57,0,0,1-6,1c-1.62-.22-1.92-1.25-1.46-2.72A9.06,9.06,0,0,1,49,18.23a3.31,3.31,0,0,1,2.6-.91c1.12,0,1.47.89,1.23,1.81a3.56,3.56,0,0,1-1.72,2.13,15.6,15.6,0,0,1-2.15,1.11,2.12,2.12,0,0,1-1.12.13c-.15,0-.28.12-.43.19.1.17.15.41.3.48a2,2,0,0,0,.82.17A24.85,24.85,0,0,0,55,22.48c.12,0,.26-.26.28-.41.17-1.13.3-2.26.47-3.39a5.28,5.28,0,0,1,.36-1.17c.08-.17.3-.26.46-.39.15.22.44.46.42.67-.14,1.5-.39,3-.52,4.48a19.93,19.93,0,0,0,.07,2.18c0,.16-.08.46-.15.47a.87.87,0,0,1-.56-.14c-.51-.34-.52-.91-.59-1.44C55.18,23.17,55.19,23,55.18,22.76Zm-7.25-1.62.15.23.81-.22a5.53,5.53,0,0,0,2.7-2,.6.6,0,0,0,0-.52.61.61,0,0,0-.47-.21,1.86,1.86,0,0,0-1.44.61C49.1,19.7,48.53,20.43,47.93,21.14Z"/><path class="cls-1" d="M36.07,22.1c-.78.38-1.53.81-2.33,1.13a10.47,10.47,0,0,1-5.07.73,4.77,4.77,0,0,1-1.05-.27,1.24,1.24,0,0,1-.81-1.22,4.59,4.59,0,0,1,1.38-3.29,19.65,19.65,0,0,1,1.65-1.64,3.19,3.19,0,0,1,2.75-.73,1.13,1.13,0,0,1,.93,1.24,2.6,2.6,0,0,1-1.12,2.16,24,24,0,0,1-2.88,1.63c-.31.16-.74.05-1.12.09-.13,0-.32.06-.35.14a.4.4,0,0,0,.1.38,1.71,1.71,0,0,0,.8.32c1.15,0,2.31-.07,3.45-.21s2.17-.41,3.26-.62a2.16,2.16,0,0,1,.36,0Zm-7.43-1.33a1.45,1.45,0,0,0,.41,0,5.86,5.86,0,0,0,3.2-2.22c.25-.34,0-.67-.38-.65a1.93,1.93,0,0,0-.64.14A5.9,5.9,0,0,0,28.64,20.77Z"/><path class="cls-1" d="M26.82,25.4a1.18,1.18,0,0,1-1.55-.06,3.21,3.21,0,0,1-.74-1.13,8.15,8.15,0,0,1-.43-2.12,30.39,30.39,0,0,1,.5-6.24c.34-2.07.66-4.15,1-6.22.21-1.22.5-2.42.77-3.62,0-.11.16-.28.25-.28s.4.06.43.16a2.11,2.11,0,0,1,.21,1C27,8.93,26.54,11,26.24,13c-.36,2.47-.66,5-.95,7.43a7.72,7.72,0,0,0,.63,3.8A5.41,5.41,0,0,0,26.82,25.4Z"/><path class="cls-1" d="M69.94,23c-.73.28-1.44.61-2.19.83a5.08,5.08,0,0,1-1.41.12,2.42,2.42,0,0,1-2.24-1.26l-.31-.48c-.44.42-.86.82-1.29,1.21a3,3,0,0,1-2.91.84,1.09,1.09,0,0,1-.89-1,3.5,3.5,0,0,1,2.2-3.7,3.09,3.09,0,0,1,2.12,0c.34.15.49.06.54-.32a2,2,0,0,1,.31-.77.52.52,0,0,1,.79-.14,1.1,1.1,0,0,1,.27.76c0,.65-.2,1.29-.16,1.93a2,2,0,0,0,1.86,1.82,6.29,6.29,0,0,0,3.25-.11Zm-6.89-2.6a13.64,13.64,0,0,0-1.57.23,2.19,2.19,0,0,0-1.59,2c0,.48.28.75.71.55A5.05,5.05,0,0,0,62,22.24,4,4,0,0,0,63.05,20.37Z"/><path class="cls-1" d="M58.53,13.94c0,.78-.52,1.45-1.09,1.45a1.19,1.19,0,0,1-1.26-1.25c0-.83.56-1.57,1.14-1.56A1.46,1.46,0,0,1,58.53,13.94Z"/><path class="cls-1" d="M34.47,15.57a1.37,1.37,0,0,1-1.41.4A3.4,3.4,0,0,1,31,14.67a1.78,1.78,0,0,1-.12-.64c.21.05.47,0,.63.15a5.29,5.29,0,0,0,2,1.18Z"/><path class="cls-1" d="M62.83,27.11l-.25.26a.92.92,0,0,0-.63-.31.44.44,0,0,0-.33.13.39.39,0,0,0-.14.3.46.46,0,0,0,.12.29,1.47,1.47,0,0,0,.47.32,2,2,0,0,1,.61.45.81.81,0,0,1,.16.48.88.88,0,0,1-.27.65.9.9,0,0,1-.67.27,1.13,1.13,0,0,1-.51-.12,1.19,1.19,0,0,1-.41-.32l.25-.29a.89.89,0,0,0,.65.35.56.56,0,0,0,.41-.16.48.48,0,0,0,.17-.36.48.48,0,0,0-.11-.3,1.84,1.84,0,0,0-.51-.33,1.67,1.67,0,0,1-.57-.43.81.81,0,0,1-.15-.48.79.79,0,0,1,.24-.59.87.87,0,0,1,.61-.23A1.25,1.25,0,0,1,62.83,27.11Z"/><path class="cls-1" d="M64,29.24a.35.35,0,0,1,.25.1.36.36,0,0,1,0,.5A.36.36,0,0,1,64,30a.34.34,0,0,1-.25-.11.35.35,0,0,1,.25-.6Z"/><path class="cls-1" d="M65,26.77h.41v.45a1.47,1.47,0,0,1,.38-.4.77.77,0,0,1,.43-.13.72.72,0,0,1,.35.1l-.21.34a.46.46,0,0,0-.21-.05.56.56,0,0,0-.38.16,1,1,0,0,0-.29.51,4.85,4.85,0,0,0-.07,1.07v1.05H65Z"/><path class="cls-1" d="M67.35,29.24a.31.31,0,0,1,.24.1.34.34,0,0,1,0,.5.32.32,0,0,1-.24.11.34.34,0,0,1-.25-.11.35.35,0,0,1,.25-.6Z"/><path class="cls-1" d="M68.46,25.57h.4v4.3h-.4Z"/><path class="cls-1" d="M70.13,29.24a.31.31,0,0,1,.24.1.34.34,0,0,1,0,.5.32.32,0,0,1-.24.11.34.34,0,0,1-.25-.11.35.35,0,0,1,.25-.6Z"/></g></g></svg>